<svg xmlns="http://www.w3.org/2000/svg" width="177" height="172" version="1.1" style=""><rect id="backgroundrect" width="100%" height="100%" x="0" y="0" fill="none" stroke="none"/>


<g class="currentLayer" style=""><title>Layer 1</title><g id="#ffffffff" class="selected" fill="#ffffff" fill-opacity="1">
</g><g id="#752a29ff" class="selected" fill="#ffffff" fill-opacity="1">
<path fill="#ffffff" opacity="1.00" d=" M 39.84 8.83 C 45.97 3.93 54.03 0.33 62.01 2.06 C 69.43 3.70 74.48 10.68 76.14 17.76 C 78.23 26.47 75.94 35.42 72.86 43.59 C 76.36 38.58 79.88 33.52 84.40 29.35 C 93.23 21.03 103.44 12.88 115.89 11.33 C 122.88 10.64 130.66 11.12 136.49 15.45 C 141.15 18.92 142.48 25.29 141.32 30.74 C 139.72 38.13 136.67 45.15 132.90 51.69 C 140.15 48.06 147.87 44.98 156.03 44.37 C 160.92 44.03 166.18 44.80 170.16 47.88 C 174.30 51.08 176.49 56.24 177.00 61.35 L 177.00 64.67 C 176.33 71.45 173.11 77.65 169.19 83.11 C 159.17 96.98 145.14 107.07 131.95 117.66 C 140.29 118.89 148.74 122.12 154.36 128.64 C 164.11 139.49 161.77 158.55 149.91 166.91 C 144.87 170.17 138.52 172.50 132.54 170.64 C 126.07 169.44 120.21 166.42 114.40 163.51 C 107.16 160.65 99.71 164.76 92.93 167.12 C 84.87 170.52 76.09 171.44 67.44 172.00 L 60.75 172.00 C 53.73 171.06 47.44 167.36 42.13 162.83 C 36.40 157.87 32.12 151.52 26.68 146.28 C 23.22 142.94 18.89 140.74 15.07 137.86 C 8.27 132.98 4.70 124.77 3.16 116.77 C 1.01 103.55 4.27 89.20 12.80 78.76 C 15.49 75.26 21.15 73.24 20.73 68.07 C 20.73 60.35 19.99 52.58 21.13 44.90 C 22.88 31.24 28.82 17.53 39.84 8.83 M 50.97 7.03 C 42.70 10.01 36.40 16.88 32.51 24.58 C 26.70 36.08 24.80 49.32 26.02 62.07 C 26.28 66.05 26.79 70.32 24.97 74.04 C 23.54 77.08 20.57 78.91 18.50 81.45 C 12.24 88.89 7.57 98.19 7.50 108.09 C 7.48 116.38 11.26 124.21 16.44 130.51 C 22.29 137.54 31.92 140.07 37.44 147.44 C 40.65 151.58 43.53 156.13 47.81 159.28 C 55.96 165.69 67.17 166.93 77.06 164.78 C 87.38 161.40 97.00 155.48 107.98 154.33 C 117.25 153.24 124.13 161.09 132.93 162.46 C 139.36 164.83 145.86 160.72 150.08 156.10 C 154.06 152.16 154.24 146.08 153.76 140.86 C 153.19 134.96 149.31 129.52 143.77 127.33 C 134.75 123.67 124.69 126.08 115.48 123.26 C 110.54 121.85 107.04 117.81 102.58 115.47 C 93.19 109.77 81.70 107.53 70.90 109.82 C 67.34 110.36 64.04 112.12 60.41 112.16 C 64.26 107.15 70.97 105.59 76.84 104.34 C 91.24 102.25 105.70 108.38 116.94 117.05 C 129.71 111.74 141.05 103.49 151.07 94.05 C 157.57 87.79 163.71 80.91 167.74 72.75 C 169.87 68.23 171.52 63.02 170.09 58.05 C 169.16 54.61 166.17 52.07 162.84 51.05 C 157.45 49.31 151.55 50.26 146.41 52.39 C 135.12 57.04 124.83 63.78 114.98 70.92 C 107.80 75.99 102.11 82.76 95.62 88.62 C 97.27 92.24 101.50 97.02 98.05 100.76 C 91.63 94.91 86.43 87.71 79.12 82.85 C 70.91 77.18 60.63 76.66 51.46 73.38 C 49.30 72.56 46.83 72.10 45.21 70.32 C 48.59 68.73 52.35 68.50 56.02 68.74 C 60.24 59.87 63.93 50.76 67.37 41.56 C 69.43 35.26 70.87 28.66 70.76 22.00 C 70.68 16.68 68.56 11.04 64.03 7.97 C 60.22 5.34 55.17 5.44 50.97 7.03 M 110.47 18.62 C 101.22 21.10 94.32 28.18 87.46 34.44 C 76.75 44.50 69.27 57.23 61.65 69.63 C 72.05 71.80 82.23 75.82 90.18 83.05 C 98.07 77.06 105.34 70.27 112.64 63.58 C 122.92 53.79 132.26 42.12 135.75 28.09 C 136.86 24.34 134.29 20.56 130.78 19.33 C 124.35 16.79 117.12 17.23 110.47 18.62 Z" id="svg_1" fill-opacity="1"/>
</g></g></svg>