<?xml version="1.0" encoding="UTF-8" ?>
<!DOCTYPE svg PUBLIC "-//W3C//DTD SVG 1.1//EN" "http://www.w3.org/Graphics/SVG/1.1/DTD/svg11.dtd">
<svg width="200pt" height="165pt" viewBox="0 0 200 165" version="1.1" xmlns="http://www.w3.org/2000/svg">
<g id="#ffffffff">
</g>
<g id="#752a29ff">
<path fill="#752a29" opacity="1.00" d=" M 34.30 25.38 C 41.17 14.89 51.34 5.80 63.96 3.31 C 76.23 0.71 88.65 5.53 98.74 12.29 C 101.39 13.92 104.44 17.04 107.67 14.78 C 116.26 10.12 126.22 7.06 136.03 9.03 C 149.97 12.01 162.21 22.14 167.52 35.41 C 168.94 39.01 170.11 42.71 171.38 46.37 C 175.64 47.64 179.90 49.01 183.83 51.13 C 190.47 54.59 195.44 61.02 197.48 68.19 C 199.36 76.85 197.59 86.01 193.79 93.92 C 188.06 105.69 177.76 115.42 165.22 119.50 C 163.14 130.63 158.43 142.08 148.84 148.77 C 139.70 155.45 127.81 155.33 116.99 155.45 C 112.06 155.65 106.85 154.00 102.14 156.11 C 89.00 161.79 74.23 164.62 60.01 161.98 C 44.26 159.12 30.77 149.37 19.90 138.02 C 10.26 128.14 0.89 116.36 0.00 102.00 L 0.00 95.94 C 1.49 82.57 8.09 70.49 15.61 59.59 C 17.82 56.14 20.75 53.10 22.19 49.20 C 25.43 40.89 29.33 32.80 34.30 25.38 M 54.65 13.79 C 43.30 20.70 37.01 33.05 31.45 44.64 C 43.55 37.79 57.28 34.49 70.90 32.30 C 80.91 30.60 91.30 32.02 100.62 35.97 C 101.65 31.43 103.70 26.15 101.23 21.80 C 94.70 16.22 86.99 11.70 78.60 9.62 C 70.45 7.59 61.78 9.56 54.65 13.79 M 111.87 18.90 C 106.28 23.87 106.50 32.10 106.54 38.98 C 117.09 44.97 125.10 55.85 126.33 68.07 C 127.07 74.62 125.34 81.39 121.39 86.69 C 125.62 87.45 130.01 88.45 134.27 87.30 C 141.87 85.31 147.96 79.86 152.99 74.06 C 157.17 68.99 161.04 63.48 163.29 57.26 C 165.68 50.29 163.50 42.84 160.60 36.39 C 156.38 27.28 149.10 19.15 139.57 15.54 C 130.43 13.29 120.05 13.96 111.87 18.90 M 32.63 52.69 C 25.36 57.03 20.71 64.35 16.36 71.37 C 10.87 80.55 6.02 90.92 6.83 101.89 C 7.64 112.44 14.34 121.24 21.18 128.82 C 30.48 138.95 40.58 149.26 53.76 154.10 C 66.68 158.75 80.84 156.08 93.37 151.48 C 98.16 149.85 102.87 147.39 108.07 147.62 C 119.51 148.02 131.76 149.46 142.42 144.31 C 151.79 139.61 155.83 129.00 157.54 119.27 C 149.06 119.04 139.77 117.81 133.31 111.78 C 128.84 107.68 127.27 101.39 127.56 95.51 C 123.37 94.97 119.28 93.88 115.22 92.73 C 109.30 96.69 102.31 98.81 95.24 99.31 C 102.45 101.16 109.42 105.04 114.05 110.96 C 114.61 111.99 116.08 113.83 114.57 114.73 C 112.39 114.88 110.72 113.12 108.98 112.07 C 100.61 105.57 90.22 102.55 80.05 100.22 C 69.76 97.91 58.86 97.83 48.99 93.96 C 50.87 91.49 54.15 91.36 57.00 91.45 C 68.35 92.05 79.55 95.00 90.97 94.19 C 97.86 93.73 104.99 92.65 110.97 88.99 C 116.29 85.78 120.16 80.21 121.07 74.05 C 122.50 65.12 118.61 55.95 112.15 49.84 C 102.84 41.03 89.73 36.20 76.91 37.24 C 61.15 38.49 45.97 44.35 32.63 52.69 M 160.02 74.99 C 153.24 84.24 144.28 93.06 132.61 95.34 C 132.16 101.63 135.78 107.87 141.71 110.21 C 149.51 113.30 158.54 113.82 166.62 111.58 C 175.78 106.94 183.16 98.96 187.84 89.88 C 191.36 82.73 193.47 74.08 190.50 66.37 C 187.11 58.56 178.95 53.95 170.92 52.25 C 168.91 60.48 165.02 68.17 160.02 74.99 Z" />
</g>
</svg>
