<?xml version="1.0" encoding="UTF-8" ?>
<!DOCTYPE svg PUBLIC "-//W3C//DTD SVG 1.1//EN" "http://www.w3.org/Graphics/SVG/1.1/DTD/svg11.dtd">
<svg width="191pt" height="188pt" viewBox="0 0 191 188" version="1.1" xmlns="http://www.w3.org/2000/svg">
<g id="#ffffffff">
</g>
<g id="#752a29ff">
<path fill="#752a29" opacity="1.00" d=" M 54.21 0.00 L 60.11 0.00 C 66.21 1.19 72.08 3.45 77.37 6.69 C 87.68 12.97 96.73 21.20 104.44 30.45 C 113.72 42.11 124.30 52.66 133.69 64.25 C 142.32 63.03 151.06 65.38 158.73 69.28 C 171.95 76.09 182.62 88.20 186.64 102.63 C 189.50 113.05 189.06 124.50 184.75 134.46 C 181.70 141.39 175.80 146.37 170.89 151.92 C 165.97 157.39 163.99 164.72 159.61 170.56 C 155.08 176.80 148.53 181.85 140.89 183.47 C 131.61 184.96 122.20 183.30 113.02 181.85 C 103.14 184.46 92.33 182.77 83.58 177.52 C 78.56 174.48 75.96 168.87 74.43 163.43 C 71.59 152.95 71.70 141.92 72.79 131.19 C 63.40 129.64 54.12 127.49 44.96 124.93 C 37.48 122.69 29.82 120.32 23.47 115.61 C 15.51 109.92 8.53 102.27 5.38 92.85 C 3.01 85.99 3.37 77.82 7.88 71.89 C 12.55 65.69 20.56 63.18 28.05 62.86 C 41.73 62.41 54.98 66.90 67.41 72.21 C 56.97 62.80 49.28 50.91 41.81 39.14 C 36.45 30.86 34.71 19.88 38.73 10.71 C 41.41 4.56 47.74 0.86 54.21 0.00 M 47.56 7.59 C 42.56 10.92 41.57 17.56 42.22 23.10 C 43.83 36.37 52.18 47.50 60.51 57.46 C 72.16 71.45 87.47 81.61 102.52 91.56 C 104.11 86.57 106.04 81.59 109.30 77.43 C 113.30 72.17 119.00 68.54 124.84 65.62 C 119.71 56.86 113.33 48.91 106.40 41.51 C 95.40 28.90 83.88 15.91 68.57 8.47 C 62.15 5.48 53.92 3.36 47.56 7.59 M 10.29 77.29 C 7.28 83.16 9.17 90.20 12.38 95.57 C 18.57 105.78 29.00 112.67 39.88 117.08 C 50.83 121.27 62.38 124.11 74.12 124.65 C 78.51 112.97 88.94 104.26 100.86 101.02 C 100.99 99.23 101.12 97.45 101.25 95.67 C 87.38 88.39 73.86 80.24 59.04 74.95 C 48.50 71.15 37.35 67.95 26.03 68.80 C 19.99 69.28 13.27 71.59 10.29 77.29 M 111.24 84.26 C 105.99 94.93 105.03 107.38 107.08 119.00 C 108.36 126.26 110.77 133.65 115.78 139.23 C 121.20 145.31 130.12 147.41 137.93 145.79 C 142.21 144.90 146.31 141.89 147.34 137.47 C 148.51 132.47 149.43 127.03 147.60 122.07 C 145.29 116.18 142.39 110.13 142.51 103.69 C 147.45 105.69 150.21 110.91 152.53 115.44 C 155.59 125.08 155.39 136.71 149.02 145.01 C 144.48 150.97 136.69 153.74 129.36 152.90 C 128.92 158.97 127.33 164.98 124.40 170.33 C 123.80 171.68 122.65 173.13 123.30 174.68 C 124.37 176.80 126.96 177.16 129.07 177.46 C 136.72 178.28 145.25 176.42 150.58 170.51 C 156.38 164.00 159.46 155.63 164.73 148.75 C 168.02 144.37 172.73 141.45 176.62 137.67 C 180.37 134.11 181.50 128.78 182.34 123.89 C 184.41 110.18 180.34 95.47 170.62 85.41 C 162.75 76.85 151.84 70.59 140.00 70.35 C 128.98 69.47 116.40 73.84 111.24 84.26 M 81.43 122.42 C 78.22 128.06 78.53 134.76 78.51 141.02 C 78.70 149.16 79.18 157.62 82.83 165.05 C 85.86 171.53 93.29 174.07 99.78 175.49 C 103.88 175.96 108.37 176.99 112.29 175.28 C 119.62 169.83 123.93 160.83 123.67 151.68 C 119.63 149.80 115.65 147.64 112.47 144.46 C 111.45 143.69 110.55 142.26 109.08 142.54 C 103.79 142.80 99.94 146.87 96.48 150.41 C 94.93 152.10 91.59 153.22 90.02 150.99 C 88.97 148.45 90.17 145.64 91.43 143.40 C 94.51 138.80 100.10 136.64 105.41 136.03 C 100.45 127.13 99.17 116.52 100.26 106.50 C 93.14 110.60 85.45 114.91 81.43 122.42 Z" />
</g>
</svg>
